<svg xmlns="http://www.w3.org/2000/svg" xmlns:xlink="http://www.w3.org/1999/xlink" viewBox="0 0 428.02 75.17"><defs><style>.cls-1,.cls-3{fill:#fff;}.cls-2{fill:url(#linear-gradient);}.cls-3{font-size:44px;font-family:Poppins-Medium, Poppins;font-weight:500;}.cls-4{fill:#d00928;}</style><linearGradient id="linear-gradient" x1="77.48" y1="77.48" x2="8.22" y2="8.22" gradientUnits="userSpaceOnUse"><stop offset="0" stop-color="#670001"/><stop offset="1" stop-color="#d00928"/></linearGradient></defs><g id="Layer_2" data-name="Layer 2"><g id="OBJECTS"><path class="cls-1" d="M0,29.48V12.29A12.29,12.29,0,0,1,12.29,0H28a15.24,15.24,0,0,0-1.36,1.19L3.8,24A19.28,19.28,0,0,0,0,29.48ZM65.11,44.9,42.29,67.72a15.24,15.24,0,0,1-1.35,1.2H56.63A12.3,12.3,0,0,0,68.92,56.63V39.41A18.83,18.83,0,0,1,65.11,44.9Z"/><path class="cls-2" d="M21.93,68.92H12.29A12.29,12.29,0,0,1,0,56.63V45.48A19.14,19.14,0,0,0,3.8,51a19.06,19.06,0,0,0,27,0L51,30.75a3.31,3.31,0,0,0-4.67-4.68L26.07,46.28A12.44,12.44,0,1,1,8.48,28.69L31.3,5.87a8.76,8.76,0,0,1,12.37,0,3.31,3.31,0,1,0,4.67-4.68A16.66,16.66,0,0,0,47,0h9.64A12.29,12.29,0,0,1,68.92,12.29V23.46A19,19,0,0,0,38.17,18L18,38.17a3.31,3.31,0,0,0,4.68,4.67l20.2-20.2a12.44,12.44,0,1,1,17.6,17.59L37.62,63.05a8.76,8.76,0,0,1-12.37,0,3.31,3.31,0,1,0-4.68,4.67A16.92,16.92,0,0,0,21.93,68.92Z"/><text class="cls-3" transform="translate(85.93 49.56)">Sahaa<tspan class="cls-4" x="144.63" y="0">Marketer</tspan></text></g></g></svg>