<svg xmlns="http://www.w3.org/2000/svg" viewBox="0 0 30.59 30.59"><defs><style>.cls-1{fill:#e87503;}</style></defs><g id="Layer_2" data-name="Layer 2"><g id="Layer_1-2" data-name="Layer 1"><path class="cls-1" d="M28,0H2.63A2.63,2.63,0,0,0,0,2.63V28a2.63,2.63,0,0,0,2.63,2.63H28A2.63,2.63,0,0,0,30.59,28V2.63A2.63,2.63,0,0,0,28,0ZM17,20l-6.93,6.93a4.52,4.52,0,0,1-6.51-.13,4.59,4.59,0,0,1,.2-6.34L7.5,16.71a.35.35,0,0,1,.51,0l.91.91a.35.35,0,0,1,0,.51L5.16,21.89A2.55,2.55,0,0,0,5,25.3a2.49,2.49,0,0,0,3.69.18l6.93-6.92a.36.36,0,0,1,.52,0l.91.91A.36.36,0,0,1,17,20Zm4.19-2.81a2,2,0,1,1,0-2.81A2,2,0,0,1,21.19,17.17Zm5.64-7L24,13a.36.36,0,0,1-.52,0l-.91-.91a.36.36,0,0,1,0-.51L25.43,8.7a2.56,2.56,0,0,0,.22-3.41A2.51,2.51,0,0,0,22,5.11l-8.36,8.36,1.21,1.21a.33.33,0,0,1-.19.56l-4.46.62a.34.34,0,0,1-.38-.38L10.39,11a.33.33,0,0,1,.57-.19L12.17,12l8.35-8.36A4.52,4.52,0,0,1,27,3.81,4.59,4.59,0,0,1,26.83,10.15Z"/></g></g></svg>