<?xml version="1.0" encoding="utf-8"?>
<!-- Generator: Adobe Illustrator 24.0.1, SVG Export Plug-In . SVG Version: 6.00 Build 0)  -->
<svg version="1.1" id="Layer_1" xmlns="http://www.w3.org/2000/svg" xmlns:xlink="http://www.w3.org/1999/xlink" x="0px" y="0px"
	 viewBox="0 0 175.2 30.6" style="enable-background:new 0 0 175.2 30.6;" xml:space="preserve">
<style type="text/css">
	.st0{fill:#FFFFFF;}
</style>
<g id="Layer_2_1_">
	<g id="Layer_1-2">
		<path class="st0" d="M28,0H2.6C1.2,0,0,1.2,0,2.6V28c0,1.5,1.2,2.6,2.6,2.6c0,0,0,0,0,0H28c1.4,0,2.6-1.2,2.6-2.6V2.6
			C30.6,1.2,29.4,0,28,0z M17,20l-6.9,6.9c-1.8,1.8-4.6,1.8-6.4,0c0,0-0.1-0.1-0.1-0.1C1.9,25,2,22.2,3.8,20.5l3.7-3.8
			c0.1-0.1,0.4-0.1,0.5,0c0,0,0,0,0,0l0.9,0.9c0.1,0.1,0.1,0.4,0,0.5c0,0,0,0,0,0l-3.8,3.8c-0.9,0.9-1,2.4-0.2,3.4
			c0.9,1.1,2.4,1.2,3.5,0.3c0.1-0.1,0.1-0.1,0.2-0.2l6.9-6.9c0.1-0.1,0.4-0.1,0.5,0c0,0,0,0,0,0l0.9,0.9C17.2,19.6,17.2,19.8,17,20
			C17,20,17,20,17,20z M21.2,17.2c-0.8,0.8-2,0.8-2.8,0c-0.8-0.8-0.8-2,0-2.8c0.8-0.8,2-0.8,2.8,0c0,0,0,0,0,0
			C21.9,15.2,21.9,16.4,21.2,17.2L21.2,17.2z M26.8,10.2L24,13c-0.1,0.1-0.4,0.1-0.5,0c0,0,0,0,0,0l-0.9-0.9c-0.1-0.1-0.1-0.4,0-0.5
			c0,0,0,0,0,0l2.9-2.9c0.9-0.9,1-2.4,0.2-3.4c-0.9-1.1-2.5-1.2-3.5-0.3c0,0-0.1,0.1-0.1,0.1l-8.4,8.4l1.2,1.2
			c0.1,0.1,0.1,0.3,0,0.5c-0.1,0.1-0.1,0.1-0.2,0.1l-4.5,0.6c-0.2,0-0.4-0.1-0.4-0.3c0,0,0-0.1,0-0.1l0.6-4.5c0-0.2,0.2-0.3,0.4-0.3
			c0.1,0,0.2,0,0.2,0.1l1.2,1.2l8.4-8.4c1.8-1.7,4.6-1.7,6.4,0.1c0,0,0.1,0.1,0.1,0.1C28.6,5.6,28.6,8.4,26.8,10.2L26.8,10.2z"/>
		<path class="st0" d="M49.3,26.8c-4.4,0-7.6-2.5-7.7-6.1h3.1c0.2,1.8,1.5,3.7,4.6,3.7c2.8,0,4.4-1.6,4.4-3.7c0-6-12-2.1-12-10.4
			c0-3.7,3-6.1,7.3-6.1c4.2,0,7,2.3,7.3,5.7h-3.2c-0.2-1.5-1.6-3.2-4.3-3.2c-2.4-0.1-4.3,1.2-4.3,3.6c0,5.7,11.9,2.2,11.9,10.3
			C56.6,23.7,54.1,26.8,49.3,26.8z"/>
		<path class="st0" d="M68.1,8.9c2.6-0.1,5.1,1.2,6.5,3.5V9.2h2.9v17.4h-2.9v-3.2c-1.4,2.3-3.9,3.6-6.5,3.5c-4.6,0-8.2-3.6-8.2-9
			S63.4,8.9,68.1,8.9z M68.6,11.4c-3.2,0-5.9,2.3-5.9,6.4s2.7,6.5,5.9,6.5s5.9-2.4,5.9-6.5S71.8,11.4,68.6,11.4z"/>
		<path class="st0" d="M82.3,3.1h2.9v8.6c1.3-1.9,3.5-3,5.8-2.8c3.9,0,6.9,2.5,6.9,7.4v10.2h-2.9v-9.8c0-3.6-1.9-5.4-4.9-5.4
			s-5,1.8-5,5.6v9.6h-2.9V3.1z"/>
		<path class="st0" d="M109.8,8.9c2.6-0.1,5.1,1.2,6.5,3.5V9.2h2.9v17.4h-2.9v-3.2c-1.4,2.3-3.9,3.6-6.5,3.5c-4.6,0-8.2-3.6-8.2-9
			S105.1,8.9,109.8,8.9z M110.4,11.4c-3.2,0-5.9,2.3-5.9,6.4s2.7,6.5,5.9,6.5s5.9-2.4,5.9-6.5S113.5,11.4,110.4,11.4z"/>
		<path class="st0" d="M131.2,8.9c2.6-0.1,5.1,1.2,6.5,3.5V9.2h2.9v17.4h-2.9v-3.2c-1.4,2.3-3.9,3.6-6.5,3.5c-4.6,0-8.2-3.6-8.2-9
			S126.6,8.9,131.2,8.9z M131.8,11.4c-3.2,0-5.9,2.3-5.9,6.4s2.7,6.5,5.9,6.5s5.9-2.4,5.9-6.5S135,11.4,131.8,11.4z"/>
		<path class="st0" d="M146.4,26.8c-1.1,0.1-2-0.8-2.1-1.9s0.8-2,1.9-2.1c1.1-0.1,2,0.8,2.1,1.9c0,0,0,0.1,0,0.1
			C148.4,25.8,147.5,26.7,146.4,26.8C146.4,26.7,146.4,26.7,146.4,26.8z"/>
		<path class="st0" d="M163.8,26.4c0.1-0.2,0.3-0.4,0.4-0.5c0.3-0.6,0.6-1.3,0.8-1.9c0.6-1.7,1.2-3.4,1.8-5.1
			c0.3-0.8,0.4-1.5,0.7-2.3c0.1-0.4,0.3-0.5,0.8-0.3c-0.1,0.3-0.2,0.6-0.3,0.8c-0.7,2.5-1.5,5-2.3,7.5c-0.2,0.6-0.4,1.1-0.7,1.6
			c-0.5,0.8-1.5,1.1-2.4,0.8c-0.5-0.1-0.8-0.5-0.9-1c-0.1-0.5-0.2-1-0.2-1.6c0-2.3,0.2-4.5,0.7-6.8c0.3-1.5,0.5-2.9,0.8-4.4v-0.2
			c-0.2,0.1-0.3,0.3-0.3,0.4c-0.3,0.8-0.7,1.5-1,2.3l-1.5,4.2c-0.2,0.5-0.4,0.9-0.6,1.4c-0.1,0.2-0.3,0.4-0.4,0.6
			c-0.6,0.7-1.6,0.7-2.3,0.2c-0.1-0.1-0.3-0.3-0.3-0.4c-0.2-0.4-0.3-0.8-0.3-1.3c-0.2-1-0.2-2,0-3c0.1-1.3,0.4-2.5,0.5-3.8
			c0-0.1,0-0.3,0-0.4l-0.2,0.3c-0.6,1-1.1,2.2-1.4,3.3c-0.6,1.5-1.1,3.1-1.7,4.6c-0.1,0.4-0.3,0.8-0.6,1.1c-0.4,0.8-1.4,1-2.2,0.6
			c-0.1,0-0.1-0.1-0.2-0.1c-0.3-0.3-0.6-0.6-0.8-1c-0.4-0.8-0.5-1.6-0.5-2.5c0-2,0.4-3.9,0.9-5.8c0.1-0.4,0.3-0.7,0.4-1.1
			c0.1-0.2,0.3-0.3,0.5-0.3c0.4-0.1,0.8,0,1.1,0.2c0.2,0.1,0.3,0.3,0.3,0.6c-0.1,0.8-0.2,1.6-0.3,2.4c-0.2,1.2-0.4,2.3-0.4,3.5
			l-0.1,2.4c0,0.1,0,0.2,0.1,0.3c0.1-0.2,0.2-0.3,0.3-0.5c0.7-1.8,1.5-3.6,2.2-5.5c0.4-1.1,1-2.2,1.5-3.2c0.2-0.4,0.5-0.7,0.8-1
			c0.1-0.1,0.3-0.2,0.4-0.3c0.8-0.2,1.6,0.2,1.9,0.9c0.2,0.5,0.3,1.1,0.3,1.6c-0.1,1.5-0.2,2.9-0.5,4.4l-0.3,1.9
			c0,0.1,0,0.3,0.1,0.4l0.1-0.2c0.3-0.7,0.5-1.4,0.7-2.1c0.6-1.7,1.3-3.4,2.2-4.9c0.3-0.5,0.7-1.1,1.1-1.6c0.6-0.7,1.7-0.8,2.4-0.2
			c0.2,0.2,0.3,0.4,0.3,0.6c0.1,0.4,0.2,0.8,0.2,1.3c-0.1,1.3-0.3,2.7-0.5,4c-0.4,2.3-0.9,4.6-1,7c0,0.3-0.1,0.6-0.1,0.8
			C163.7,25.6,163.7,26,163.8,26.4L163.8,26.4z"/>
		<path class="st0" d="M169.5,16.9c-0.1,0.3-0.2,0.6-0.3,1c-0.2,0.8-0.3,1.7-0.2,2.5c0,0.4,0.2,0.8,0.5,1.1c0.3,0.3,0.7,0.4,1.1,0.3
			c0.7-0.3,1.2-0.8,1.7-1.4c0.1-0.1,0.2-0.2,0.3-0.3c0.2-0.2,0.5-0.3,0.7-0.3c0.2,0,0.4,0.1,0.4,0.4c0,0.1,0,0.2-0.1,0.3
			c-0.1,0.2-0.2,0.3-0.3,0.5c-0.4,0.6-0.9,1-1.5,1.4c-1.7,0.9-3.8,0.3-4.8-1.5c-0.2-0.4-0.3-0.8-0.4-1.2c-0.1-1,0-2.1,0.4-3.1
			c0.6-1.9,1.7-3.6,3.3-4.9c0.6-0.5,1.2-0.8,1.9-0.9c1-0.1,2,0.3,2.6,1c0.3,0.4,0.4,0.9,0.3,1.4c-0.1,0.4-0.3,0.7-0.5,1
			c-1,1.4-2.4,2.3-4.1,2.6C170.2,16.8,169.9,16.8,169.5,16.9L169.5,16.9z M169.9,16.1h0.2c1.2-0.3,2.3-0.9,3.1-1.9
			c0.3-0.4,0.6-0.8,0.7-1.3c0-0.2,0-0.5-0.1-0.7c0-0.3-0.2-0.4-0.5-0.3c-0.4,0.1-0.8,0.3-1.1,0.6c-1,0.9-1.8,2-2.4,3.3
			C169.9,15.9,169.9,16,169.9,16.1z"/>
	</g>
</g>
</svg>
