<svg xmlns="http://www.w3.org/2000/svg" viewBox="0 0 160.57 42.12"><defs><style>.cls-1,.cls-3{fill:#f9f9fb;}.cls-2{fill:#d07503;}.cls-3{font-size:28.91px;font-family:Poppins-Regular, Poppins;}.cls-4{font-family:raustila-Regular, raustila;}</style></defs><g id="Layer_2" data-name="Layer 2"><g id="Layer_1-2" data-name="Layer 1"><path class="cls-1" d="M25.49.36H2.4A2.39,2.39,0,0,0,0,2.76V25.85a2.39,2.39,0,0,0,2.4,2.39H25.49a2.4,2.4,0,0,0,2.4-2.39V2.76A2.4,2.4,0,0,0,25.49.36Zm-10,18.21L9.18,24.89a4.12,4.12,0,0,1-5.93-.12A4.18,4.18,0,0,1,3.43,19l3.4-3.4a.34.34,0,0,1,.48,0l.82.83a.32.32,0,0,1,0,.47L4.71,20.32a2.28,2.28,0,1,0,3.17,3.27l6.31-6.31a.32.32,0,0,1,.47,0l.83.82A.33.33,0,0,1,15.49,18.57ZM19.32,16a1.81,1.81,0,1,1-2.56-2.56A1.81,1.81,0,0,1,19.32,16Zm5.14-6.4-2.58,2.57a.33.33,0,0,1-.47,0l-.83-.83a.33.33,0,0,1,0-.47l2.6-2.59a2.33,2.33,0,0,0,.2-3.11A2.28,2.28,0,0,0,20,5l-7.62,7.61,1.1,1.11a.3.3,0,0,1-.17.51l-4.07.56a.3.3,0,0,1-.34-.34l.56-4.07a.3.3,0,0,1,.52-.17l1.1,1.1L18.7,3.72a4.12,4.12,0,0,1,5.94.11A4.2,4.2,0,0,1,24.46,9.61Z"/><path class="cls-2" d="M15.49,18.57,9.18,24.89a4.12,4.12,0,0,1-5.93-.12A4.18,4.18,0,0,1,3.43,19l3.4-3.4a.34.34,0,0,1,.48,0l.82.83a.32.32,0,0,1,0,.47L4.71,20.32a2.28,2.28,0,1,0,3.17,3.27l6.31-6.31a.32.32,0,0,1,.47,0l.83.82A.33.33,0,0,1,15.49,18.57Z"/><circle class="cls-2" cx="18.04" cy="14.73" r="1.81"/><path class="cls-2" d="M24.46,9.61l-2.58,2.57a.33.33,0,0,1-.47,0l-.83-.83a.33.33,0,0,1,0-.47l2.6-2.59a2.33,2.33,0,0,0,.2-3.11A2.28,2.28,0,0,0,20,5l-7.62,7.61,1.1,1.11a.3.3,0,0,1-.17.51l-4.07.56a.3.3,0,0,1-.34-.34l.56-4.07a.3.3,0,0,1,.52-.17l1.1,1.1L18.7,3.72a4.12,4.12,0,0,1,5.94.11A4.2,4.2,0,0,1,24.46,9.61Z"/><text class="cls-3" transform="translate(36.31 24.57)">Sahaa.<tspan class="cls-4" x="100.16" y="0">me</tspan></text></g></g></svg>